<svg width="237.233" height="14.338" viewBox="0 0 237.233 14.338" xmlns="http://www.w3.org/2000/svg"><g fill="#111"><path d="M4.738 11.362c2.792 0 4.087-2.087 4.087-4.45 0-2.362-1.295-4.449-4.087-4.449C1.945 2.463.65 4.55.65 6.913c0 2.362 1.294 4.45 4.087 4.45zm0-1.141c-1.989 0-2.774-1.54-2.774-3.308 0-1.768.785-3.308 2.774-3.308 1.988 0 2.774 1.54 2.774 3.308 0 1.767-.786 3.308-2.774 3.308zM11.697 2.574v8.678h1.264v-3.8h4.106v3.8h1.264V2.574h-1.264V6.31H12.96V2.574zM21.773 2.574v8.678h5.076v-1.197h-3.811V2.574zM32.832 2.574h-.945l-3.357 8.678h1.338l.73-1.964h3.504l.725 1.964h1.368zm-1.866 5.628l1.381-3.86 1.393 3.86zM38.619 2.574v8.678h5.075v-1.197h-3.81V2.574zM49.677 2.574h-.945l-3.357 8.678h1.338l.73-1.964h3.505l.724 1.964h1.369zm-1.865 5.628l1.38-3.86 1.394 3.86zM55.464 2.574v8.678h5.076v-1.197h-3.811V2.574zM66.523 2.574h-.945l-3.357 8.678h1.338l.73-1.964h3.504l.724 1.964h1.369zm-1.866 5.628l1.381-3.86 1.393 3.86zM72.31 2.574v8.678h1.264V2.574zM80.294 2.574h-.945l-3.357 8.678h1.337l.73-1.964h3.505l.724 1.964h1.369zm-1.866 5.628l1.38-3.86 1.394 3.86zM86.08 2.574v8.678h1.265v-3.78h4.112V6.323h-4.112V3.72h4.676V2.574zM98.213 11.362c2.792 0 4.087-2.087 4.087-4.45 0-2.362-1.295-4.449-4.087-4.449s-4.087 2.087-4.087 4.45c0 2.362 1.295 4.45 4.087 4.45zm0-1.141c-1.988 0-2.774-1.54-2.774-3.308 0-1.768.786-3.308 2.774-3.308s2.774 1.54 2.774 3.308c0 1.767-.786 3.308-2.774 3.308zM106.872 3.721v7.53h1.264v-7.53h2.848V2.574h-6.96V3.72zM116.801 11.362c2.793 0 4.088-2.087 4.088-4.45 0-2.362-1.295-4.449-4.088-4.449-2.792 0-4.087 2.087-4.087 4.45 0 2.362 1.295 4.45 4.087 4.45zm0-1.141c-1.988 0-2.774-1.54-2.774-3.308 0-1.768.786-3.308 2.774-3.308 1.989 0 2.774 1.54 2.774 3.308 0 1.767-.785 3.308-2.774 3.308zM127.203 11.362c1.258 0 2.253-.49 2.817-1.473l.105 1.363h1.006V6.686h-3.259V7.74h2.068c-.024 1.307-.981 2.48-2.645 2.48-1.908 0-2.792-1.424-2.792-3.357 0-2.05 1.037-3.271 2.805-3.271 1.233 0 2.062.54 2.504 1.712l1.172-.473c-.663-1.577-1.903-2.369-3.67-2.369-2.59 0-4.124 1.762-4.124 4.45 0 2.768 1.552 4.45 4.013 4.45zM140.41 11.252l-2.246-3.904c1.147-.33 1.847-1.19 1.847-2.313 0-1.504-1.148-2.461-2.897-2.461h-2.866v8.678h1.264V7.496h1.424l2.032 3.756zm-3.363-4.88h-1.528v-2.65h1.515c1.074 0 1.694.49 1.694 1.325s-.583 1.326-1.681 1.326zM146.258 2.574h-.945l-3.357 8.678h1.338l.73-1.964h3.504l.725 1.964h1.368zm-1.866 5.628l1.381-3.86 1.393 3.86zM152.045 2.574v8.678h1.264v-3.78h4.112V6.323h-4.112V3.72h4.677V2.574zM160.692 2.574v8.678h1.264V2.574zM168.676 2.574h-.946l-3.356 8.678h1.337l.73-1.964h3.505l.724 1.964h1.369zm-1.866 5.628l1.38-3.86 1.394 3.86zM175.088 11.362c.43 0 .774-.35.774-.773 0-.43-.35-.755-.774-.755a.756.756 0 00-.76.755c0 .423.33.773.76.773zM179.17 2.574v8.678h5.725v-1.173h-4.462V7.441h4.094V6.299h-4.094V3.721h4.462V2.574zM190.252 11.362c1.774 0 2.928-1 2.928-2.418 0-3.062-4.302-2.314-4.302-4.284 0-.638.534-1.098 1.313-1.098.718 0 1.197.337 1.528 1.013l1.148-.356c-.491-1.154-1.406-1.756-2.652-1.756-1.51 0-2.59.958-2.59 2.271 0 2.989 4.309 2.24 4.309 4.327 0 .705-.559 1.203-1.62 1.203-1.025 0-1.762-.54-1.958-1.657l-1.252.325c.3 1.503 1.467 2.43 3.148 2.43z"/></g></svg>